<?xml version="1.0" encoding="UTF-8" standalone="no"?>
<!-- Created with Inkscape (http://www.inkscape.org/) -->

<svg
   width="120.83829mm"
   height="26.458334mm"
   viewBox="0 0 120.83829 26.458334"
   version="1.1"
   id="svg1"
   xmlns="http://www.w3.org/2000/svg"
   xmlns:svg="http://www.w3.org/2000/svg">
  <defs
     id="defs1" />
  <g
     id="layer1">
    <path
       d="M 6.9951514,26.095893 1.8402189e-6,8.6986294 H 4.1318517 L 8.8436105,21.34789 7.6113044,21.384077 12.21433,8.6985723 h 2.319635 L 19.136991,21.384077 17.904685,21.34789 22.616444,8.6986294 h 4.131849 L 19.753144,26.095893 H 17.433509 L 12.72175,14.062786 h 1.304795 L 9.3147864,26.095893 Z m 29.1041226,0.362438 c -1.570586,0 -2.996196,-0.39869 -4.276827,-1.196062 -1.25647,-0.797368 -2.259229,-1.872618 -3.008277,-3.225738 -0.724888,-1.377283 -1.087326,-2.911625 -1.087326,-4.603026 0,-1.715563 0.362438,-3.249906 1.087326,-4.603026 0.749052,-1.377283 1.751807,-2.464612 3.008277,-3.2619864 1.280631,-0.8215383 2.706241,-1.2323061 4.276827,-1.2323061 1.328958,0 2.500856,0.2899539 3.515696,0.8698629 1.03901,0.5557461 1.860541,1.3289576 2.464613,2.3196356 0.604079,0.990669 0.906112,2.11425 0.906112,3.37072 v 5.001713 c 0,1.256469 -0.302033,2.380042 -0.906112,3.37072 -0.579915,0.99067 -1.389364,1.77597 -2.428368,2.355879 -1.039009,0.555739 -2.222983,0.83362 -3.551941,0.833614 z m 0.652395,-3.769407 c 1.473935,0 2.657915,-0.495346 3.551941,-1.486017 0.918189,-0.990669 1.377283,-2.259227 1.377283,-3.80565 0,-1.039009 -0.205389,-1.957192 -0.616155,-2.754567 -0.410755,-0.797368 -0.99067,-1.413523 -1.739722,-1.848455 -0.724887,-0.459094 -1.582668,-0.688636 -2.573345,-0.688636 -0.966516,0 -1.824296,0.229542 -2.573346,0.688636 -0.724887,0.434931 -1.304794,1.051086 -1.739726,1.84846 -0.410766,0.797368 -0.616155,1.715563 -0.616155,2.754566 0,1.039009 0.205389,1.957193 0.616155,2.754567 0.434931,0.79738 1.014845,1.425609 1.739726,1.884703 0.749052,0.43493 1.606831,0.652396 2.573344,0.652393 z m 4.675516,3.406969 v -4.675515 l 0.688642,-4.240583 -0.688642,-4.204338 V 8.6986294 h 3.986873 V 26.095893 Z m 8.408673,0 V -2.0980835e-6 h 3.986873 V 26.095893 Z m 8.408621,0 V -2.0980835e-6 h 3.986873 V 26.095893 Z m 16.382368,0.362438 c -1.6914,0 -3.225741,-0.39869 -4.603026,-1.196062 -1.377283,-0.821537 -2.476693,-1.920943 -3.29823,-3.298227 -0.797375,-1.377283 -1.196062,-2.911624 -1.196062,-4.603026 0,-1.6914 0.39869,-3.21366 1.196062,-4.566781 0.82154,-1.35312 1.920947,-2.428368 3.29823,-3.2257424 1.377285,-0.8215378 2.911626,-1.2323061 4.603026,-1.2323061 1.715564,0 3.261988,0.3986876 4.639271,1.1960618 1.377283,0.7973737 2.464613,1.8847037 3.261987,3.2619867 0.821544,1.353121 1.232305,2.875381 1.232305,4.566781 0,1.691402 -0.410766,3.225743 -1.232305,4.603026 -0.79738,1.377284 -1.884704,2.476694 -3.261987,3.298232 -1.377283,0.797368 -2.923707,1.196062 -4.639271,1.196057 z m 0,-3.841895 c 0.99067,0 1.860541,-0.217466 2.60959,-0.652396 0.773205,-0.459094 1.365203,-1.087326 1.775971,-1.884703 0.43493,-0.79738 0.652396,-1.703482 0.652396,-2.718323 0,-1.014834 -0.217466,-1.908866 -0.652396,-2.682077 -0.43493,-0.773205 -1.026921,-1.377284 -1.775971,-1.812215 -0.749052,-0.459095 -1.618912,-0.688636 -2.60959,-0.688636 -0.966517,0 -1.836377,0.229541 -2.609589,0.688636 -0.749051,0.43493 -1.341039,1.039009 -1.77597,1.812215 -0.410767,0.773204 -0.616156,1.667238 -0.616156,2.682077 0,1.014845 0.205389,1.920949 0.616156,2.718323 0.43493,0.79738 1.026921,1.425609 1.77597,1.884703 0.773205,0.43493 1.643075,0.652396 2.609589,0.652396 z m 20.44177,3.841895 c -1.715563,0 -3.274067,-0.39869 -4.675514,-1.196062 -1.377284,-0.797369 -2.464613,-1.884698 -3.261987,-3.261982 -0.797374,-1.377283 -1.196061,-2.911624 -1.196061,-4.603026 0,-1.715563 0.39869,-3.249905 1.196061,-4.603026 0.797368,-1.377283 1.884703,-2.464612 3.261987,-3.2619867 1.401447,-0.7973742 2.959951,-1.1960618 4.675514,-1.1960618 1.353121,0 2.60959,0.265791 3.769407,0.7973741 1.183986,0.5074203 2.186736,1.2443874 3.008276,2.2109024 l -2.609588,2.645834 c -0.50742,-0.604075 -1.123573,-1.051084 -1.84846,-1.341039 -0.700719,-0.31412 -1.473935,-0.471175 -2.319635,-0.471175 -0.990669,0 -1.872622,0.229541 -2.645833,0.688635 -0.749052,0.434931 -1.34104,1.03901 -1.775971,1.812215 -0.410767,0.773204 -0.616155,1.679319 -0.616155,2.718323 0,1.014845 0.205388,1.920947 0.616155,2.718322 0.43493,0.773205 1.026921,1.389364 1.775971,1.848459 0.773204,0.43493 1.655156,0.652395 2.645833,0.652395 0.845697,0 1.618913,-0.144973 2.319635,-0.43493 0.724888,-0.314122 1.34104,-0.773205 1.84846,-1.377283 l 2.609588,2.645833 c -0.82154,0.966525 -1.82429,1.71557 -3.008276,2.247153 -1.159817,0.507421 -2.416286,0.761131 -3.769407,0.761126 z m 20.695483,-0.362438 -7.3576,-8.879853 7.32135,-8.5174106 h 4.748 l -8.40867,9.5684946 0.18122,-2.283391 8.5899,10.11216 z m -11.05451,0 V -2.0980835e-6 h 3.98687 V 26.095893 Z"
       id="text1"
       style="font-weight:500;font-size:3.175px;font-family:Outfit;-inkscape-font-specification:'Outfit Medium';fill:#66cc8a;stroke-width:3.02036"
       aria-label="wallock" />
  </g>
</svg>
